<svg width="1728" height="645" viewBox="0 0 1728 645" fill="none" xmlns="http://www.w3.org/2000/svg">
<mask id="mask0_5066_153781" style="mask-type:alpha" maskUnits="userSpaceOnUse" x="-1" y="0" width="1730" height="645">
<path d="M-1 0L1729 0V581C1729 616.346 1700.35 645 1665 645L63 645C27.6538 645 -1 616.346 -1 581L-1 0Z" fill="url(#paint0_radial_5066_153781)"/>
</mask>
<g mask="url(#mask0_5066_153781)">
<path d="M1742.91 475.056C1742.91 575.603 1472.29 657.113 1138.45 657.113C804.624 657.113 534 575.603 534 475.056C534 374.509 804.624 293 1138.45 293C1472.29 293 1742.91 374.509 1742.91 475.056Z" fill="url(#paint1_linear_5066_153781)" stroke="#black" stroke-width="0.6" stroke-linecap="round" stroke-linejoin="round"/>
<path opacity="0.8" d="M1405.66 422.945C1361.4 423.872 1307 439.979 1253.81 470.649C1168.97 519.572 1113.51 590.501 1112.7 644.396C1121.15 644.566 1129.88 644.679 1139.19 644.706C1198.57 644.881 1266.99 640.082 1296.04 630.111C1337.24 615.974 1348.88 615.399 1370.29 608.554C1378.23 606.016 1410.27 600.523 1452.17 594.887C1495.37 547.127 1513.58 496.155 1494.47 461.057C1480.61 435.6 1449.59 422.99 1409.88 422.945C1408.47 422.943 1407.09 422.915 1405.66 422.945ZM1404.15 638.569C1399.76 639.217 1395.35 639.911 1390.91 640.529C1395.32 639.916 1399.66 639.315 1404.02 638.672C1404.06 638.638 1404.1 638.603 1404.15 638.569ZM1321.34 648.625C1316.06 649.13 1310.74 649.608 1305.4 650.069C1310.74 649.608 1316.06 649.13 1321.34 648.625ZM1305.4 650.069C1293.62 651.088 1281.69 651.998 1269.63 652.803C1281.68 652 1293.62 651.086 1305.4 650.069ZM1269.63 652.803C1264.23 653.163 1258.8 653.518 1253.35 653.834C1258.81 653.518 1264.22 653.163 1269.63 652.803ZM1249.53 654.04C1245.59 654.261 1241.64 654.462 1237.67 654.659C1241.64 654.463 1245.6 654.26 1249.53 654.04ZM1113.49 656.929C1113.5 656.945 1113.49 656.963 1113.49 656.98C1116.68 657.02 1119.91 657.007 1123.11 657.032C1119.9 657.007 1116.69 656.968 1113.49 656.929Z" fill="url(#paint2_radial_5066_153781)" stroke="url(#paint3_radial_5066_153781)"/>
<path d="M1635.27 578.724C1534.61 580.963 1388.56 602.728 1370.26 608.576C1348.85 615.422 1337.2 615.955 1296 630.092C1266.95 640.063 1198.59 644.86 1139.21 644.685C1049.68 644.422 1000.46 637.132 980.112 630.915C975.728 629.576 949.217 621.744 930.111 618.899C866.557 609.434 775.494 602.926 715.348 605.026" stroke="#black" stroke-width="0.6" stroke-linecap="round" stroke-linejoin="round"/>
<path d="M930.043 646.001C953.89 641.404 1008.07 636.822 1008.07 636.822" stroke="#161616" stroke-width="0.6" stroke-linecap="round" stroke-linejoin="round"/>
<path d="M1438.35 633.161C1364.89 626.865 1304.45 628.362 1304.45 628.362" stroke="#black" stroke-width="0.6"/>
<path d="M1188.72 656.487C1183.94 652.02 1179.8 648.054 1175.71 644.128" stroke="#black" stroke-width="0.6" stroke-linecap="round" stroke-linejoin="round"/>
<path d="M1708.49 482.4C1708.49 578.891 1453.27 657.112 1138.45 657.112C823.623 657.112 568.406 578.891 568.406 482.4C568.406 385.909 823.623 307.687 1138.45 307.687C1453.27 307.687 1708.49 385.909 1708.49 482.4Z" stroke="black" stroke-width="0.6" stroke-linecap="round" stroke-linejoin="round"/>
<path d="M1674.27 488.568C1674.27 579.381 1434.37 653 1138.45 653C842.526 653 602.633 579.381 602.633 488.568C602.633 397.755 842.526 324.137 1138.45 324.137C1434.37 324.137 1674.27 397.755 1674.27 488.568Z" stroke="black" stroke-width="0.6" stroke-linecap="round" stroke-linejoin="round"/>
<path d="M1638.71 495.619C1638.71 580.916 1414.74 650.063 1138.45 650.063C862.157 650.063 638.18 580.916 638.18 495.619C638.18 410.322 862.157 341.175 1138.45 341.175C1414.74 341.175 1638.71 410.322 1638.71 495.619Z" stroke="black" stroke-width="0.6" stroke-linecap="round" stroke-linejoin="round"/>
<path d="M1604.5 503.55C1604.5 583.818 1395.85 648.888 1138.45 648.888C881.057 648.888 672.398 583.818 672.398 503.55C672.398 423.282 881.057 358.212 1138.45 358.212C1395.85 358.212 1604.5 423.282 1604.5 503.55Z" stroke="black" stroke-width="0.6" stroke-linecap="round" stroke-linejoin="round"/>
<path d="M1570.94 511.775C1570.94 586.527 1377.3 647.125 1138.44 647.125C899.581 647.125 705.945 586.527 705.945 511.775C705.945 437.023 899.581 376.424 1138.44 376.424C1377.3 376.424 1570.94 437.023 1570.94 511.775Z" stroke="black" stroke-width="0.6" stroke-linecap="round" stroke-linejoin="round"/>
<path d="M1536.57 521.174C1536.57 590.734 1358.32 647.124 1138.45 647.124C918.569 647.124 740.324 590.734 740.324 521.174C740.324 451.614 918.569 395.224 1138.45 395.224C1358.32 395.224 1536.57 451.614 1536.57 521.174Z" stroke="black" stroke-width="0.6" stroke-linecap="round" stroke-linejoin="round"/>
<path d="M1503.27 529.987C1503.27 594.032 1339.94 645.95 1138.45 645.95C936.957 645.95 773.617 594.032 773.617 529.987C773.617 465.943 936.957 414.024 1138.45 414.024C1339.94 414.024 1503.27 465.943 1503.27 529.987Z" stroke="black" stroke-width="0.6" stroke-linecap="round" stroke-linejoin="round"/>
<path d="M1471.14 540.268C1471.14 598.635 1322.36 645.95 1138.83 645.95C955.296 645.95 806.516 598.635 806.516 540.268C806.516 481.902 955.296 434.587 1138.83 434.587C1322.36 434.587 1471.14 481.902 1471.14 540.268Z" stroke="black" stroke-width="0.6" stroke-linecap="round" stroke-linejoin="round"/>
<path d="M1438.07 550.843C1438.07 603.369 1304.26 645.95 1139.2 645.95C974.135 645.95 840.324 603.369 840.324 550.843C840.324 498.317 974.135 455.737 1139.2 455.737C1304.26 455.737 1438.07 498.317 1438.07 550.843Z" stroke="black" stroke-width="0.6" stroke-linecap="round" stroke-linejoin="round"/>
<path d="M1404.18 563.374C1404.18 610.815 1285.54 649.273 1139.2 649.273C992.854 649.273 874.219 610.815 874.219 563.374C874.219 515.933 992.854 477.474 1139.2 477.474C1285.54 477.474 1404.18 515.933 1404.18 563.374Z" stroke="black" stroke-width="0.6" stroke-linecap="round" stroke-linejoin="round"/>
<path d="M1370.67 575.629C1370.67 617.219 1267.04 650.935 1139.19 650.935C1011.35 650.935 907.719 617.219 907.719 575.629C907.719 534.038 1011.35 500.322 1139.19 500.322C1267.04 500.322 1370.67 534.038 1370.67 575.629Z" stroke="black" stroke-width="0.6" stroke-linecap="round" stroke-linejoin="round"/>
<path d="M1337.5 590.584C1337.5 626.668 1248.72 655.92 1139.2 655.92C1029.68 655.92 940.891 626.668 940.891 590.584C940.891 554.5 1029.68 525.248 1139.2 525.248C1248.72 525.248 1337.5 554.5 1337.5 590.584Z" stroke="black" stroke-width="0.6" stroke-linecap="round" stroke-linejoin="round"/>
<path d="M1305.36 607.201C1305.36 637.32 1230.97 661.736 1139.2 661.736C1047.43 661.736 973.031 637.32 973.031 607.201C973.031 577.082 1047.43 552.666 1139.2 552.666C1230.97 552.666 1305.36 577.082 1305.36 607.201Z" stroke="black" stroke-width="0.6" stroke-linecap="round" stroke-linejoin="round"/>
<path d="M1272.4 627.141C1272.4 651.295 1212.76 670.875 1139.2 670.875C1065.63 670.875 1006 651.295 1006 627.141C1006 602.987 1065.63 583.407 1139.2 583.407C1212.76 583.407 1272.4 602.987 1272.4 627.141Z" stroke="black" stroke-width="0.6" stroke-linecap="round" stroke-linejoin="round"/>
<path d="M1044.15 653.728C1044.15 634.851 1086.71 619.549 1139.2 619.549C1191.7 619.549 1234.26 634.851 1234.26 653.728" stroke="black" stroke-width="0.6" stroke-linecap="round" stroke-linejoin="round"/>
<path d="M575 541.094C842.779 568.213 954.648 613.474 994.628 634.46" stroke="black" stroke-width="0.6" stroke-linecap="round" stroke-linejoin="round"/>
<path d="M534.508 467.558C867.337 543.804 979.33 606.486 1015.55 637.901" stroke="black" stroke-width="0.6" stroke-linejoin="round"/>
<path d="M589.426 398.798C818.543 486.386 983.724 570.103 1040.78 640.707" stroke="black" stroke-width="0.6" stroke-linejoin="round"/>
<path d="M717.133 344.517C918.85 469.026 1037.76 578.61 1070.65 642.849" stroke="black" stroke-width="0.6" stroke-linejoin="round"/>
<path d="M894.418 308.448C976.967 412.243 1073.76 546.603 1100.48 644.087" stroke="black" stroke-width="0.6" stroke-linejoin="round"/>
<path d="M1222.62 641.304C1284.03 545.099 1536.8 421.784 1641.52 374.085" stroke="black" stroke-width="0.6" stroke-linejoin="round"/>
<path d="M1249.14 639.154C1331.66 554.601 1616.91 469.98 1729.64 436.931" stroke="black" stroke-width="0.6" stroke-linejoin="round"/>
<path d="M1194.29 643.309C1236.66 532.756 1418.52 384.809 1490.61 327.07" stroke="black" stroke-width="0.6" stroke-linejoin="round"/>
<path d="M1302.14 299.754C1198.73 484.88 1164.35 619.537 1162.52 644.485" stroke="black" stroke-width="0.6" stroke-linejoin="round"/>
<path d="M1130.88 644.64C1120.45 452.579 1098.56 325.287 1095.34 293.456" stroke="black" stroke-width="0.6" stroke-linejoin="round"/>
</g>
<defs>
<radialGradient id="paint0_radial_5066_153781" cx="0" cy="0" r="1" gradientUnits="userSpaceOnUse" gradientTransform="translate(1160.5 474.855) rotate(-90) scale(173.794 604.646)">
<stop stop-color="#FAF3FF"/>
<stop offset="1" stop-color="#FAF3FF" stop-opacity="0"/>
</radialGradient>
<linearGradient id="paint1_linear_5066_153781" x1="618.5" y1="466.425" x2="1563.02" y2="426.023" gradientUnits="userSpaceOnUse">
<stop stop-color="#161616"/>
<stop offset="0.165835" stop-color="#161616"/>
<stop offset="0.405874" stop-color="#1f222c"/>
<stop offset="0.724798" stop-color="#2d2147"/>
<stop offset="1" stop-color="#351d3b"/>
</linearGradient>
<radialGradient id="paint2_radial_5066_153781" cx="0" cy="0" r="1" gradientUnits="userSpaceOnUse" gradientTransform="translate(1246.58 637.161) rotate(-45.2006) scale(258.244 113.948)">
<stop stop-color="#1f1e46"/>
<stop offset="0.5" stop-color="#252331"/>
<stop offset="1" stop-color="#2f2c31" stop-opacity="0"/>
</radialGradient>
<radialGradient id="paint3_radial_5066_153781" cx="0" cy="0" r="1" gradientUnits="userSpaceOnUse" gradientTransform="translate(1150.85 1472.88) scale(516.271 425.337)">
<stop stop-color="#FF5555"/>
<stop offset="1" stop-color="#FF5555" stop-opacity="0"/>
</radialGradient>
</defs>
</svg>
