<svg width="134" height="40" viewBox="0 0 134 40" fill="none" xmlns="http://www.w3.org/2000/svg">
<path d="M25.7568 1.28077C25.9171 0.84354 26.5355 0.84354 26.6957 1.28077L26.8096 1.59154C26.8599 1.72855 26.9674 1.83678 27.1041 1.88785L27.4252 2.0078C27.8586 2.16969 27.8586 2.78269 27.4252 2.94458L27.1041 3.06453C26.9674 3.1156 26.8599 3.22383 26.8096 3.36085L26.6957 3.67161C26.5355 4.10884 25.9171 4.10884 25.7568 3.67161L25.6429 3.36085C25.5927 3.22383 25.4851 3.1156 25.3484 3.06453L25.0273 2.94458C24.5939 2.78269 24.5939 2.16969 25.0273 2.0078L25.3484 1.88785C25.4851 1.83678 25.5927 1.72855 25.6429 1.59154L25.7568 1.28077Z" fill="#370063"/>
<path d="M37.4551 26.0427C37.6154 25.6054 38.2338 25.6054 38.394 26.0427L38.406 26.0754C38.4563 26.2124 38.5638 26.3206 38.7005 26.3717L38.7462 26.3888C39.1796 26.5506 39.1796 27.1636 38.7462 27.3255L38.7005 27.3426C38.5638 27.3937 38.4563 27.5019 38.406 27.6389L38.394 27.6716C38.2338 28.1088 37.6154 28.1088 37.4551 27.6716L37.4431 27.6389C37.3929 27.5019 37.2854 27.3937 37.1487 27.3426L37.103 27.3255C36.6696 27.1636 36.6696 26.5506 37.103 26.3888L37.1487 26.3717C37.2854 26.3206 37.3929 26.2124 37.4431 26.0754L37.4551 26.0427Z" fill="#370063"/>
<path d="M1.01548 21.4043C1.1197 21.1199 1.52181 21.1199 1.62603 21.4043C1.65868 21.4934 1.72882 21.5638 1.81771 21.597C2.10207 21.7032 2.10207 22.1063 1.81771 22.2125C1.72882 22.2457 1.65868 22.3161 1.62603 22.4052C1.52181 22.6895 1.1197 22.6895 1.01548 22.4052C0.982824 22.3161 0.912691 22.2457 0.8238 22.2125C0.539441 22.1063 0.539441 21.7032 0.8238 21.597C0.912691 21.5638 0.982824 21.4934 1.01548 21.4043Z" fill="#370063"/>
<path fill-rule="evenodd" clip-rule="evenodd" d="M2.34419 38.8892C2.24913 39.2586 2.43947 39.642 2.7895 39.7862C3.13954 39.9304 3.54125 39.7909 3.72934 39.4599L3.73016 39.4584L3.73649 39.4475C3.74254 39.4371 3.75228 39.4205 3.76571 39.398C3.79259 39.3529 3.83425 39.2841 3.89088 39.1938C4.00415 39.0132 4.1772 38.7465 4.41136 38.4109C4.87982 37.7395 5.59205 36.7936 6.55864 35.7103C7.87128 34.2391 9.64924 32.5186 11.9188 30.8877C11.4194 31.7104 10.9041 32.6824 10.4244 33.8066C10.2782 34.1492 10.3993 34.5484 10.7105 34.7496C11.0218 34.9509 11.4316 34.8949 11.6787 34.6174L11.6799 34.6161L11.686 34.6093L11.7127 34.5798C11.7369 34.5533 11.7735 34.5134 11.8217 34.4618C11.9181 34.3584 12.0607 34.2082 12.2423 34.0243C12.606 33.6559 13.1236 33.1547 13.7378 32.6247C14.4397 32.0189 15.2424 31.3979 16.0683 30.8917C15.9081 31.305 15.7349 31.7949 15.5507 32.3757C15.436 32.7374 15.6026 33.1291 15.9415 33.2942C16.2768 33.4576 16.6794 33.3495 16.8904 33.0412L16.8937 33.0367C16.9005 33.0276 16.9157 33.008 16.9407 32.9785C16.9907 32.9197 17.08 32.8214 17.22 32.6901C17.5001 32.4273 17.984 32.0314 18.7631 31.5533C20.3226 30.5962 23.0599 29.3131 27.6976 28.1124C32.6122 26.8401 34.9973 24.1327 36.1227 21.6805C36.6785 20.4694 36.918 19.3413 37.019 18.5143C37.0695 18.1 37.0856 17.7588 37.0888 17.5171C37.0904 17.3961 37.0888 17.2997 37.0866 17.2312C37.0859 17.2104 37.0852 17.1921 37.0845 17.1765C37.0852 17.1662 37.0859 17.1548 37.0867 17.1421C37.0873 17.1327 37.0879 17.1226 37.0885 17.1119C37.0926 17.0375 37.097 16.9322 37.0987 16.8C37.1023 16.5359 37.0955 16.163 37.0554 15.7144C36.9754 14.8201 36.7612 13.607 36.2187 12.3495C35.1123 9.78535 32.6789 7.14101 27.5781 6.56311C22.4321 5.98008 18.068 8.70048 14.8743 11.7559C11.6695 14.8219 9.52241 18.3374 8.7825 19.6155C8.6032 19.9252 8.66221 20.3193 8.9242 20.5616C9.18618 20.804 9.58017 20.8291 9.8702 20.6218L9.87028 20.6217L9.87178 20.6206L9.87896 20.6155L9.90936 20.5941C9.93654 20.5751 9.97719 20.5467 10.0295 20.5108C10.1341 20.439 10.285 20.3371 10.4674 20.2187C10.6756 20.0834 10.9221 19.9285 11.186 19.7727C10.8206 20.1219 10.424 20.5125 10.0096 20.9381C8.21061 22.7865 6.03867 25.3373 4.66276 28.0729C4.4996 28.3973 4.5864 28.7929 4.86999 29.0174C5.15356 29.2419 5.55476 29.2327 5.82792 28.9954L5.82795 28.9954L5.82799 28.9954L5.82827 28.9951L5.83002 28.9936L5.83782 28.9869L5.87018 28.959C5.89902 28.9343 5.94213 28.8976 5.99802 28.8504C6.10983 28.756 6.27264 28.62 6.47464 28.4556C6.87444 28.1301 7.425 27.6953 8.03583 27.2506C7.86853 27.47 7.69754 27.7 7.5239 27.9405C5.69119 30.4782 3.55294 34.192 2.34419 38.8892ZM14.8065 12.8874C17.9937 9.65377 22.3651 6.73917 27.494 7.32026C22.4194 6.74534 18.0342 9.64512 14.8065 12.8874Z" fill="#370063"/>
<path d="M13.1202 14.6245C13.1202 14.6245 11.8636 16.2281 10.7729 17.8303C10.5273 18.1909 11.0471 18.638 11.4133 18.4038C12.4032 17.7704 13.6831 17.1892 15.0493 17.1862C15.2053 17.1859 15.2805 17.3698 15.1767 17.4874L10.7373 22.5201C10.4645 22.8293 10.8101 23.3015 11.1838 23.1311C12.32 22.6128 13.8039 21.9515 14.8553 21.5399C15.0285 21.4721 15.1758 21.6702 15.0652 21.8209C14.346 22.8005 12.6447 25.1285 10.7046 27.8564C10.4582 28.203 10.8966 28.6656 11.2551 28.4396C12.8792 27.4159 15.337 25.977 17.4954 25.1671C17.6655 25.1032 17.8103 25.2982 17.7083 25.4497C17.2753 26.0923 16.4992 27.271 15.9765 28.2177C15.8083 28.5222 16.111 28.819 16.4206 28.6645L19.4958 27.1294C19.6486 27.0531 19.8153 27.2042 19.7566 27.3658L19.1537 29.0231C19.0424 29.3291 19.3397 29.6297 19.6443 29.5215C20.8984 29.0758 23.4835 28.2032 25.9597 27.6516C29.3997 26.8853 31.9676 25.2549 31.9676 25.2549C31.9676 25.2549 33.7442 24.1136 34.4225 23.2331C35.1008 22.3527 36.4736 18.8962 36.3928 17.4452C36.3121 15.9941 36.6835 12.7169 33.2597 9.45611C29.8358 6.19528 23.2303 7.58113 23.2303 7.58113C23.2303 7.58113 18.2237 8.42895 13.1202 14.6245Z" fill="#8F00FF"/>
<path d="M27.946 16.1898C28.3384 16.1898 28.6566 15.7811 28.6566 15.2768C28.6566 14.7725 28.3384 14.3638 27.946 14.3638C27.5535 14.3638 27.2354 14.7725 27.2354 15.2768C27.2354 15.7811 27.5535 16.1898 27.946 16.1898Z" fill="#370063"/>
<path d="M32.6945 16.1898C33.087 16.1898 33.4051 15.7811 33.4051 15.2768C33.4051 14.7725 33.087 14.3638 32.6945 14.3638C32.302 14.3638 31.9839 14.7725 31.9839 15.2768C31.9839 15.7811 32.302 16.1898 32.6945 16.1898Z" fill="#370063"/>
<path fill-rule="evenodd" clip-rule="evenodd" d="M32.5914 18.5349C32.789 18.7812 32.7515 19.1425 32.5075 19.342C31.4486 20.2081 30.4105 20.2571 29.6348 20.0599C29.2581 19.9641 28.9524 19.8134 28.7409 19.6873C28.6344 19.6238 28.5498 19.5654 28.4898 19.5211C28.4598 19.4989 28.4357 19.4802 28.4179 19.4659C28.4091 19.4588 28.4017 19.4528 28.396 19.448L28.3887 19.4418L28.3859 19.4395L28.3848 19.4385L28.3843 19.438C28.384 19.4378 28.3838 19.4376 28.7535 19.0018L28.3838 19.4376C28.1453 19.2315 28.1175 18.8692 28.3217 18.6285C28.5251 18.3887 28.8819 18.36 29.1203 18.5634L29.1256 18.5677C29.132 18.5728 29.1438 18.5821 29.1607 18.5946C29.1946 18.6196 29.2483 18.6569 29.319 18.6991C29.4617 18.7842 29.6661 18.8843 29.9125 18.947C30.3829 19.0666 31.043 19.0628 31.7919 18.4502C32.0358 18.2507 32.3938 18.2886 32.5914 18.5349Z" fill="#370063"/>
<path d="M49.0999 14H63.8369V16.4355L55.7107 22.7258H63.9201V26H49V23.5484L56.893 17.1613H49.0999V14Z" fill="#370063"/>
<path d="M69.9332 26H65.204V14H69.9332V18.7419L76.0278 14H81.9059L74.6956 19.4516L82.1391 26H75.9778L69.9332 20.629V26Z" fill="#370063"/>
<path d="M92.9445 22.2419H87.3494V26H82.6203V14H92.9445C96.8633 14 98.8226 15.3226 98.8226 17.9677V18.2258C98.8226 20.9032 96.8633 22.2419 92.9445 22.2419ZM87.3494 17V19.2419H92.3783C93.4218 19.2419 93.9436 18.8763 93.9436 18.1452V18.0968C93.9436 17.3656 93.4218 17 92.3783 17H87.3494Z" fill="#370063"/>
<path d="M108.066 21.0645L105.984 16.9355L103.953 21.0645H108.066ZM110.547 26L109.581 24.0645H102.504L101.555 26H96.7592L102.887 14H109.248L115.726 26H110.547Z" fill="#370063"/>
<path d="M116.266 26V14H125.058C126.434 14 127.656 14.1075 128.721 14.3226C129.787 14.5376 130.647 14.8226 131.302 15.1774C131.957 15.5323 132.49 15.9624 132.901 16.4677C133.323 16.9731 133.611 17.4839 133.767 18C133.922 18.5161 134 19.0753 134 19.6774V20.1613C134 20.7527 133.928 21.3065 133.784 21.8226C133.65 22.3387 133.378 22.8602 132.968 23.3871C132.568 23.914 132.046 24.3656 131.402 24.7419C130.77 25.1075 129.909 25.4086 128.821 25.6452C127.744 25.8817 126.496 26 125.075 26H116.266ZM120.995 17.1452V22.8226H124.508C127.561 22.8226 129.088 21.8871 129.088 20.0161V19.9194C129.088 18.0699 127.561 17.1452 124.508 17.1452H120.995Z" fill="#370063"/>
</svg>
