<svg width="295" height="290" viewBox="0 0 295 290" fill="none" xmlns="http://www.w3.org/2000/svg">
    <path d="M176.358 18.3187C176.991 18.553 176.991 19.4485 176.358 19.6828L172.676 21.0454C172.477 21.1191 172.32 21.276 172.246 21.4751L170.883 25.1575C170.649 25.7906 169.754 25.7906 169.519 25.1575L168.157 21.4751C168.083 21.276 167.926 21.1191 167.727 21.0454L164.045 19.6828C163.412 19.4485 163.412 18.553 164.045 18.3187L167.727 16.9561C167.926 16.8824 168.083 16.7255 168.157 16.5264L169.519 12.844C169.754 12.2108 170.649 12.2108 170.883 12.844L172.246 16.5264C172.32 16.7255 172.477 16.8824 172.676 16.9561L176.358 18.3187Z"
          fill="url(#paint0_angular_2352_44588)"
          class="star star__top"
    />
    <path d="M7.3177 180.643C7.55199 180.01 8.44755 180.01 8.68184 180.643L10.0444 184.325C10.1181 184.524 10.2751 184.681 10.4741 184.755L14.1565 186.118C14.7897 186.352 14.7897 187.247 14.1565 187.482L10.4741 188.844C10.2751 188.918 10.1181 189.075 10.0444 189.274L8.68184 192.956C8.44755 193.589 7.55199 193.589 7.3177 192.956L5.9551 189.274C5.88144 189.075 5.72448 188.918 5.52541 188.844L1.84305 187.482C1.20987 187.247 1.20987 186.352 1.84305 186.118L5.52541 184.755C5.72448 184.681 5.88144 184.524 5.9551 184.325L7.3177 180.643Z"
          fill="url(#paint1_angular_2352_44588)"
          class="star star__left"
    />
    <path d="M286.317 104.643C286.551 104.01 287.447 104.01 287.681 104.643L289.043 108.325C289.117 108.524 289.274 108.681 289.473 108.755L293.156 110.118C293.789 110.352 293.789 111.247 293.156 111.482L289.473 112.844C289.274 112.918 289.117 113.075 289.043 113.274L287.681 116.956C287.447 117.589 286.551 117.589 286.317 116.956L284.954 113.274C284.88 113.075 284.724 112.918 284.524 112.844L280.842 111.482C280.209 111.247 280.209 110.352 280.842 110.118L284.524 108.755C284.724 108.681 284.88 108.524 284.954 108.325L286.317 104.643Z"
          fill="url(#paint2_angular_2352_44588)" class="star star__right"/>
    <path d="M183.868 51.0678C183.868 48.8796 182.562 46.9029 180.548 46.0457C178.535 45.1885 176.204 45.6166 174.627 47.1333L155.217 65.7961C126.319 93.5835 101.9 125.681 82.8303 160.946C82.3813 161.738 82.125 162.655 82.125 163.631C82.125 166.646 84.5688 169.089 87.5833 169.089H133.634C134.186 169.089 134.634 169.537 134.634 170.089V247.568C134.634 249.729 135.91 251.687 137.887 252.561C139.864 253.434 142.17 253.059 143.768 251.603L152.453 243.692C182.852 216 208.651 183.646 228.88 147.844L234.252 138.337C235.207 136.647 235.193 134.578 234.214 132.901C233.236 131.225 231.441 130.194 229.5 130.194H184.868C184.316 130.194 183.868 129.746 183.868 129.194V51.0678Z"
          fill="white" class="planet planed__big"/>
    <mask id="mask0_2352_44588" style="mask-type:alpha" maskUnits="userSpaceOnUse" x="82" y="45" width="153"
          height="209">
        <path d="M183.868 51.0678C183.868 48.8796 182.562 46.9029 180.548 46.0457C178.535 45.1885 176.204 45.6166 174.627 47.1333L155.217 65.7961C126.319 93.5835 101.9 125.681 82.8303 160.946C82.3813 161.738 82.125 162.655 82.125 163.631C82.125 166.646 84.5688 169.089 87.5833 169.089H133.634C134.186 169.089 134.634 169.537 134.634 170.089V247.568C134.634 249.729 135.91 251.687 137.887 252.561C139.864 253.434 142.17 253.059 143.768 251.603L152.453 243.692C182.852 216 208.651 183.646 228.88 147.844L234.252 138.337C235.207 136.647 235.193 134.578 234.214 132.901C233.236 131.225 231.441 130.194 229.5 130.194H184.868C184.316 130.194 183.868 129.746 183.868 129.194V51.0678Z"
              fill="white" class="planet planed__big"/>
    </mask>
    <g mask="url(#mask0_2352_44588)" class="planet planed__big">
        <g filter="url(#filter0_f_2352_44588)">
            <ellipse cx="164.049" cy="124.92" rx="60.9003" ry="30.8018" transform="rotate(132.381 164.049 124.92)"
                     fill="#8F00FF"/>
        </g>
        <g filter="url(#filter1_f_2352_44588)">
            <ellipse cx="184.02" cy="70.5277" rx="46.7339" ry="48.1385" transform="rotate(158.84 184.02 70.5277)"
                     fill="#FD91E4"/>
        </g>
        <g filter="url(#filter2_f_2352_44588)">
            <ellipse cx="84.1856" cy="54.5077" rx="78.7973" ry="119.965" transform="rotate(-138.482 84.1856 54.5077)"
                     fill="#FFD7F6"/>
        </g>
        <g filter="url(#filter3_f_2352_44588)">
            <ellipse cx="103.161" cy="236.535" rx="76.3927" ry="76.3927" transform="rotate(158.84 103.161 236.535)"
                     fill="white"/>
        </g>
        <g filter="url(#filter4_f_2352_44588)">
            <ellipse cx="172.84" cy="166.032" rx="69.8492" ry="24.4428" transform="rotate(127.784 172.84 166.032)"
                     fill="#FD91E4"/>
        </g>
    </g>
    <g filter="url(#filter5_i_2352_44588)" class="planet planet__small">
        <g clip-path="url(#clip0_2352_44588)">
            <path d="M99.621 69.6212C112.667 56.5756 133.818 56.5756 146.863 69.6212C159.909 82.6668 159.909 103.818 146.863 116.864C133.818 129.909 112.667 129.909 99.621 116.864C86.5754 103.818 86.5754 82.6668 99.621 69.6212Z"
                  fill="white"/>
            <g filter="url(#filter6_f_2352_44588)">
                <ellipse rx="45.9635" ry="84.7507"
                         transform="matrix(-0.981064 -0.193685 -0.193685 0.981064 57.0398 184.845)" fill="#8F00FF"/>
            </g>
        </g>
    </g>
    <defs>
        <filter id="filter0_f_2352_44588" x="25.1064" y="-16.6367" width="277.886" height="283.115"
                filterUnits="userSpaceOnUse" color-interpolation-filters="sRGB">
            <feFlood flood-opacity="0" result="BackgroundImageFix"/>
            <feBlend mode="normal" in="SourceGraphic" in2="BackgroundImageFix" result="shape"/>
            <feGaussianBlur stdDeviation="46" result="effect1_foregroundBlur_2352_44588"/>
        </filter>
        <filter id="filter1_f_2352_44588" x="104.088" y="-10.4434" width="159.864" height="161.941"
                filterUnits="userSpaceOnUse" color-interpolation-filters="sRGB">
            <feFlood flood-opacity="0" result="BackgroundImageFix"/>
            <feBlend mode="normal" in="SourceGraphic" in2="BackgroundImageFix" result="shape"/>
            <feGaussianBlur stdDeviation="16.5" result="effect1_foregroundBlur_2352_44588"/>
        </filter>
        <filter id="filter2_f_2352_44588" x="-54.8374" y="-89.4141" width="278.046" height="287.844"
                filterUnits="userSpaceOnUse" color-interpolation-filters="sRGB">
            <feFlood flood-opacity="0" result="BackgroundImageFix"/>
            <feBlend mode="normal" in="SourceGraphic" in2="BackgroundImageFix" result="shape"/>
            <feGaussianBlur stdDeviation="20" result="effect1_foregroundBlur_2352_44588"/>
        </filter>
        <filter id="filter3_f_2352_44588" x="6.74756" y="140.121" width="192.827" height="192.826"
                filterUnits="userSpaceOnUse" color-interpolation-filters="sRGB">
            <feFlood flood-opacity="0" result="BackgroundImageFix"/>
            <feBlend mode="normal" in="SourceGraphic" in2="BackgroundImageFix" result="shape"/>
            <feGaussianBlur stdDeviation="10" result="effect1_foregroundBlur_2352_44588"/>
        </filter>
        <filter id="filter4_f_2352_44588" x="67.8745" y="50.8184" width="209.931" height="230.428"
                filterUnits="userSpaceOnUse" color-interpolation-filters="sRGB">
            <feFlood flood-opacity="0" result="BackgroundImageFix"/>
            <feBlend mode="normal" in="SourceGraphic" in2="BackgroundImageFix" result="shape"/>
            <feGaussianBlur stdDeviation="29" result="effect1_foregroundBlur_2352_44588"/>
        </filter>
        <filter id="filter5_i_2352_44588" x="76" y="44" width="97.4844" height="96.4844" filterUnits="userSpaceOnUse"
                color-interpolation-filters="sRGB">
            <feFlood flood-opacity="0" result="BackgroundImageFix"/>
            <feBlend mode="normal" in="SourceGraphic" in2="BackgroundImageFix" result="shape"/>
            <feColorMatrix in="SourceAlpha" type="matrix" values="0 0 0 0 0 0 0 0 0 0 0 0 0 0 0 0 0 0 127 0"
                           result="hardAlpha"/>
            <feOffset dx="3" dy="-2"/>
            <feGaussianBlur stdDeviation="6"/>
            <feComposite in2="hardAlpha" operator="arithmetic" k2="-1" k3="1"/>
            <feColorMatrix type="matrix" values="0 0 0 0 1 0 0 0 0 1 0 0 0 0 1 0 0 0 1 0"/>
            <feBlend mode="normal" in2="shape" result="effect1_innerShadow_2352_44588"/>
        </filter>
        <filter id="filter6_f_2352_44588" x="-110.961" y="-18.7832" width="336.001" height="407.256"
                filterUnits="userSpaceOnUse" color-interpolation-filters="sRGB">
            <feFlood flood-opacity="0" result="BackgroundImageFix"/>
            <feBlend mode="normal" in="SourceGraphic" in2="BackgroundImageFix" result="shape"/>
            <feGaussianBlur stdDeviation="60" result="effect1_foregroundBlur_2352_44588"/>
        </filter>
        <radialGradient id="paint0_angular_2352_44588" cx="0" cy="0" r="1" gradientUnits="userSpaceOnUse"
                        gradientTransform="translate(170.201 19.0007) rotate(-180) scale(6.63161)">
            <stop stop-color="#9D69DE" stop-opacity="0"/>
            <stop offset="1" stop-color="#9D69DE"/>
        </radialGradient>
        <radialGradient id="paint1_angular_2352_44588" cx="0" cy="0" r="1" gradientUnits="userSpaceOnUse"
                        gradientTransform="translate(7.99977 186.8) rotate(90) scale(6.63161)">
            <stop stop-color="#9D69DE" stop-opacity="0"/>
            <stop offset="1" stop-color="#9D69DE"/>
        </radialGradient>
        <radialGradient id="paint2_angular_2352_44588" cx="0" cy="0" r="1" gradientUnits="userSpaceOnUse"
                        gradientTransform="translate(286.999 110.8) rotate(90) scale(6.63161)">
            <stop stop-color="#9D69DE" stop-opacity="0"/>
            <stop offset="1" stop-color="#9D69DE"/>
        </radialGradient>
        <clipPath id="clip0_2352_44588">
            <path d="M99.621 69.6212C112.667 56.5756 133.818 56.5756 146.863 69.6212C159.909 82.6668 159.909 103.818 146.863 116.864C133.818 129.909 112.667 129.909 99.621 116.864C86.5754 103.818 86.5754 82.6668 99.621 69.6212Z"
                  fill="white"/>
        </clipPath>
    </defs>
</svg>
